<svg width="30" height="30" viewBox="0 0 30 30" fill="none" xmlns="http://www.w3.org/2000/svg">
<g clip-path="url(#clip0_152_2023)">
<path d="M30 3.75049H5.3025L5.25 3.31174C5.14256 2.39976 4.70423 1.5589 4.01811 0.948586C3.33199 0.338267 2.44578 0.000915523 1.5275 0.000488281L0 0.000488281V2.50049H1.5275C1.83367 2.50053 2.12917 2.61293 2.35797 2.81638C2.58676 3.01983 2.73293 3.30017 2.76875 3.60424L4.75 20.4392C4.85744 21.3512 5.29577 22.1921 5.98189 22.8024C6.66801 23.4127 7.55422 23.7501 8.4725 23.7505H25V21.2505H8.4725C8.16614 21.2504 7.87048 21.1378 7.64166 20.9341C7.41283 20.7304 7.26679 20.4498 7.23125 20.1455L7.0675 18.7505H27.295L30 3.75049ZM25.205 16.2505H6.77375L5.5975 6.25049H27.0088L25.205 16.2505Z" fill="#0C0C0C"/>
<path d="M8.75024 30.0012C10.1309 30.0012 11.2502 28.8819 11.2502 27.5012C11.2502 26.1205 10.1309 25.0012 8.75024 25.0012C7.36953 25.0012 6.25024 26.1205 6.25024 27.5012C6.25024 28.8819 7.36953 30.0012 8.75024 30.0012Z" fill="#0C0C0C"/>
<path d="M21.25 30.0012C22.6307 30.0012 23.75 28.8819 23.75 27.5012C23.75 26.1205 22.6307 25.0012 21.25 25.0012C19.8693 25.0012 18.75 26.1205 18.75 27.5012C18.75 28.8819 19.8693 30.0012 21.25 30.0012Z" fill="#0C0C0C"/>
</g>
<defs>
<clipPath id="clip0_152_2023">
<rect width="30" height="30" fill="white" transform="translate(0 0.000488281)"/>
</clipPath>
</defs>
</svg>
