<svg width="30" height="30" viewBox="0 0 30 30" fill="none" xmlns="http://www.w3.org/2000/svg">
<path d="M25.2052 16.2501H6.7738L5.59754 6.25004H17.5001V3.75003H5.30254L5.25003 3.31002C5.14231 2.39826 4.70386 1.5577 4.01776 0.947636C3.33167 0.33757 2.44561 0.000391048 1.52751 0L0 0V2.50002H1.52751C1.83368 2.50006 2.12919 2.61246 2.35798 2.81591C2.58678 3.01936 2.73295 3.29971 2.76877 3.60377L4.75003 20.4389C4.85747 21.3509 5.2958 22.1917 5.98193 22.8021C6.66805 23.4124 7.55427 23.7497 8.47256 23.7502H25.0002V21.2501H8.47256C8.1662 21.2501 7.87053 21.1375 7.64171 20.9338C7.41288 20.7301 7.26684 20.4494 7.2313 20.1451L7.06755 18.7501H27.2952L28.4202 12.5001H25.8814L25.2052 16.2501Z" fill="#0C0C0C"/>
<path d="M8.75001 30.001C10.1307 30.001 11.25 28.8817 11.25 27.501C11.25 26.1203 10.1307 25.001 8.75001 25.001C7.36929 25.001 6.25 26.1203 6.25 27.501C6.25 28.8817 7.36929 30.001 8.75001 30.001Z" fill="#0C0C0C"/>
<path d="M21.2503 30.001C22.631 30.001 23.7503 28.8817 23.7503 27.501C23.7503 26.1203 22.631 25.001 21.2503 25.001C19.8695 25.001 18.7502 26.1203 18.7502 27.501C18.7502 28.8817 19.8695 30.001 21.2503 30.001Z" fill="#0C0C0C"/>
<path d="M26.2503 3.75003V0H23.7503V3.75003H20.0002V6.25004H23.7503V10.0001H26.2503V6.25004H30.0003V3.75003H26.2503Z" fill="#0C0C0C"/>
</svg>
