<svg width="30" height="30" viewBox="0 0 30 30" fill="none" xmlns="http://www.w3.org/2000/svg">
<g clip-path="url(#clip0_152_2021)">
<path d="M29.9997 28.2339L22.1722 20.4064C24.2055 17.9197 25.2052 14.7466 24.9645 11.5434C24.7239 8.34023 23.2612 5.3521 20.8792 3.19709C18.4972 1.04207 15.378 -0.114948 12.1668 -0.0346585C8.95559 0.0456313 5.89811 1.35709 3.62674 3.62845C1.35538 5.89982 0.0439223 8.9573 -0.0363675 12.1685C-0.116657 15.3797 1.04037 18.4989 3.19538 20.8809C5.35039 23.263 8.33852 24.7256 11.5417 24.9662C14.7448 25.2069 17.918 24.2072 20.4047 22.1739L28.2322 30.0014L29.9997 28.2339ZM12.4997 22.5014C10.5219 22.5014 8.58852 21.9149 6.94402 20.8161C5.29953 19.7173 4.01781 18.1555 3.26093 16.3283C2.50406 14.501 2.30602 12.4903 2.69187 10.5505C3.07773 8.61072 4.03013 6.82889 5.42866 5.43037C6.82718 4.03184 8.60901 3.07944 10.5488 2.69358C12.4886 2.30773 14.4993 2.50576 16.3266 3.26264C18.1538 4.01952 19.7156 5.30124 20.8144 6.94573C21.9132 8.59023 22.4997 10.5236 22.4997 12.5014C22.4968 15.1527 21.4422 17.6945 19.5675 19.5692C17.6928 21.4439 15.151 22.4985 12.4997 22.5014Z" fill="#0C0C0C"/>
</g>
<defs>
<clipPath id="clip0_152_2021">
<rect width="30" height="30" fill="white" transform="translate(0 0.000488281)"/>
</clipPath>
</defs>
</svg>
