<svg width="30" height="30" viewBox="0 0 30 30" fill="none" xmlns="http://www.w3.org/2000/svg">
<g clip-path="url(#clip0_152_2022)">
<path d="M26.25 30.0012H23.75V23.6975C23.749 22.7175 23.3593 21.7779 22.6663 21.0849C21.9733 20.392 21.0338 20.0022 20.0537 20.0012H9.94625C8.96625 20.0022 8.02667 20.392 7.3337 21.0849C6.64074 21.7779 6.25099 22.7175 6.25 23.6975V30.0012H3.75V23.6975C3.75198 22.0547 4.40544 20.4798 5.56703 19.3183C6.72862 18.1567 8.30351 17.5032 9.94625 17.5012H20.0537C21.6965 17.5032 23.2714 18.1567 24.433 19.3183C25.5946 20.4798 26.248 22.0547 26.25 23.6975V30.0012Z" fill="#0C0C0C"/>
<path d="M15 15.0005C13.5166 15.0005 12.0666 14.5606 10.8332 13.7365C9.59986 12.9124 8.63856 11.7411 8.07091 10.3706C7.50325 9.00017 7.35472 7.49217 7.64411 6.03731C7.9335 4.58246 8.64781 3.24608 9.6967 2.19719C10.7456 1.1483 12.082 0.433991 13.5368 0.144602C14.9917 -0.144787 16.4997 0.00373793 17.8701 0.571395C19.2406 1.13905 20.4119 2.10035 21.236 3.33371C22.0601 4.56708 22.5 6.01713 22.5 7.50049C22.498 9.48901 21.7072 11.3955 20.3011 12.8016C18.895 14.2077 16.9885 14.9985 15 15.0005V15.0005ZM15 2.50049C14.0111 2.50049 13.0444 2.79374 12.2222 3.34314C11.3999 3.89255 10.759 4.67344 10.3806 5.58707C10.0022 6.50071 9.90315 7.50604 10.0961 8.47594C10.289 9.44585 10.7652 10.3368 11.4645 11.036C12.1637 11.7353 13.0546 12.2115 14.0246 12.4044C14.9945 12.5973 15.9998 12.4983 16.9134 12.1199C17.8271 11.7415 18.6079 11.1006 19.1574 10.2783C19.7068 9.4561 20 8.4894 20 7.50049C20 6.17441 19.4732 4.90264 18.5355 3.96496C17.5979 3.02728 16.3261 2.50049 15 2.50049Z" fill="#0C0C0C"/>
</g>
<defs>
<clipPath id="clip0_152_2022">
<rect width="30" height="30" fill="white" transform="translate(0 0.000488281)"/>
</clipPath>
</defs>
</svg>
